<?xml version="1.0" encoding="UTF-8" standalone="no"?>
<!DOCTYPE svg PUBLIC "-//W3C//DTD SVG 1.1//EN" "http://www.w3.org/Graphics/SVG/1.1/DTD/svg11.dtd">
<svg xmlns="http://www.w3.org/2000/svg" version="1.1" viewBox="0.00 0.00 184.00 184.00">
<g stroke-width="2.00" fill="none" stroke-linecap="butt">
<path stroke="#ddb36a" vector-effect="non-scaling-stroke" d="
  M 117.04 121.70
  C 111.49 129.72 99.74 131.25 92.03 126.19
  Q 85.59 121.96 85.43 115.50
  Q 85.24 107.80 85.34 100.16
  A 0.36 0.36 0.0 0 0 84.98 99.80
  L 57.50 99.70
  A 0.78 0.78 0.0 0 0 56.72 100.48
  C 56.65 106.42 56.18 113.56 57.62 118.77
  C 60.75 130.04 70.11 135.09 81.32 136.12
  Q 84.43 136.40 81.49 135.33
  C 67.83 130.32 63.31 121.96 64.46 107.67
  A 0.78 0.77 2.0 0 1 65.24 106.95
  L 77.22 106.89
  A 0.52 0.52 0.0 0 1 77.74 107.41
  C 77.76 111.30 77.37 115.54 78.24 119.13
  C 82.61 137.16 103.19 140.57 117.62 131.78"
/>
<path stroke="#deae78" vector-effect="non-scaling-stroke" d="
  M 117.62 131.78
  Q 126.92 125.14 126.90 114.11
  Q 126.87 94.35 127.08 74.60
  C 127.18 65.96 126.92 56.36 126.99 47.26
  A 0.75 0.74 90.0 0 0 126.25 46.51
  L 73.14 46.45
  Q 72.48 46.45 72.48 47.11
  L 72.56 73.78
  A 1.22 1.21 -0.0 0 0 73.78 74.99
  L 98.03 74.99
  A 0.69 0.69 0.0 0 1 98.72 75.68
  Q 98.76 92.97 98.73 110.41
  C 98.73 114.29 97.74 117.19 95.29 119.92
  Q 94.38 120.94 95.74 120.78
  C 100.74 120.21 105.97 116.84 105.96 111.25
  Q 105.94 89.55 106.05 68.39
  Q 106.05 67.36 105.03 67.37
  L 81.54 67.60
  Q 80.22 67.61 80.22 66.29
  L 80.23 54.88
  A 0.64 0.64 0.0 0 1 80.87 54.24
  L 118.98 54.26
  A 0.56 0.55 0.5 0 1 119.54 54.82
  Q 119.25 78.59 119.50 102.50
  C 119.57 109.24 120.39 115.33 117.04 121.70"
/>
<path stroke="#fda323" vector-effect="non-scaling-stroke" d="
  M 117.62 131.78
  Q 116.55 130.51 116.29 129.48
  Q 116.26 129.37 116.38 129.37
  L 116.69 129.37
  Q 116.79 129.37 116.84 129.29
  Q 117.58 128.02 116.42 127.09
  A 0.73 0.72 18.9 0 1 116.15 126.55
  Q 116.08 124.22 117.04 121.70"
/>
<path stroke="#b5b5b4" vector-effect="non-scaling-stroke" d="
  M 154.40 152.95
  Q 153.93 153.55 153.50 154.17
  C 152.03 156.27 149.71 156.88 147.25 156.20
  Q 141.10 154.52 141.59 147.99
  Q 141.78 145.48 139.60 144.05
  Q 139.17 143.77 138.83 144.15
  L 136.23 147.04
  A 2.39 2.38 51.4 0 1 132.37 146.60
  C 130.00 142.32 128.06 135.41 121.40 140.01
  A 1.67 1.63 25.9 0 1 120.53 140.30
  Q 118.45 140.40 116.87 141.64
  Q 115.55 142.67 115.07 143.02
  Q 114.03 143.76 113.20 144.80
  A 1.12 1.07 -27.2 0 0 112.95 145.52
  Q 112.99 147.53 111.44 148.59
  A 1.15 1.12 38.4 0 1 110.39 148.70
  Q 106.42 147.09 102.53 149.05
  Q 101.24 149.69 99.88 150.12
  C 97.74 150.80 96.34 152.07 94.40 153.06
  Q 93.93 153.29 93.44 153.15
  Q 92.26 152.80 91.64 153.84
  A 0.91 0.89 6.6 0 1 91.11 154.25
  Q 88.40 154.97 87.70 157.64
  Q 87.56 158.17 87.12 158.48
  Q 86.34 159.02 86.39 160.02
  A 0.87 0.85 -18.2 0 1 86.00 160.77
  Q 85.32 161.21 85.37 162.01
  Q 85.40 162.56 85.00 162.92
  Q 83.45 164.33 82.66 166.25
  Q 82.46 166.73 81.95 166.76
  Q 79.70 166.92 77.92 168.22
  Q 77.52 168.51 77.05 168.64
  Q 74.92 169.23 75.54 171.01
  Q 75.68 171.44 75.27 171.61
  Q 74.77 171.82 74.94 172.47
  Q 75.52 174.76 74.40 176.80
  Q 74.17 177.23 73.68 177.28
  Q 73.19 177.32 72.80 177.68
  Q 72.42 178.03 72.17 177.59
  Q 71.75 176.87 71.05 176.37
  Q 70.69 176.12 70.65 175.69
  C 70.41 173.08 69.89 169.80 67.33 168.89
  Q 66.83 168.71 66.40 169.01
  Q 63.26 171.13 62.68 174.96
  Q 62.61 175.40 62.29 175.71
  Q 61.10 176.85 60.95 178.45
  A 1.54 1.54 0.0 0 1 58.55 179.57
  C 55.75 177.65 55.87 173.83 53.40 171.23
  Q 53.04 170.85 52.51 170.85
  C 49.71 170.90 47.19 172.36 44.79 172.12
  C 39.92 171.63 37.47 167.54 34.50 163.23
  C 31.45 158.79 27.89 156.90 22.54 156.48
  C 20.35 156.30 18.60 155.62 16.57 155.00
  Q 15.85 154.78 14.34 153.80
  C 11.01 151.64 8.40 154.45 5.60 155.90
  C 2.99 157.24 0.79 159.66 0.62 162.50
  Q 0.06 171.77 0.46 181.45
  A 1.99 1.99 0.0 0 0 2.54 183.36
  C 4.49 183.27 6.66 183.60 8.50 183.60
  Q 33.93 183.72 59.34 183.00
  Q 61.14 182.95 64.65 183.19
  Q 68.41 183.45 70.00 182.74
  C 76.33 179.91 82.13 181.17 88.75 182.11
  C 97.89 183.40 107.11 183.81 116.34 183.87
  C 122.97 183.90 133.96 182.68 143.00 183.48
  C 145.66 183.72 148.24 183.08 151.00 183.12
  Q 166.13 183.34 181.88 183.89
  A 1.86 1.86 0.0 0 0 183.81 181.98
  C 183.67 175.89 183.11 169.74 183.25 163.68
  C 183.49 152.69 184.21 140.68 181.98 129.88
  A 0.58 0.58 0.0 0 0 181.36 129.43
  L 181.09 129.46
  Q 180.83 129.49 180.86 129.75
  C 181.17 132.80 181.43 135.42 180.47 138.47
  Q 178.36 145.20 176.43 151.96
  C 175.28 155.99 172.62 157.72 168.42 156.18
  Q 166.51 155.48 164.47 154.75
  A 2.48 2.47 -77.4 0 1 162.85 152.19
  Q 163.16 148.97 163.15 145.14
  Q 163.15 142.90 162.17 140.53
  Q 161.23 138.25 160.49 136.04
  A 1.80 1.80 0.0 0 0 157.22 135.70
  C 155.69 138.33 156.16 141.74 155.75 144.00
  C 155.27 146.63 155.98 150.98 154.40 152.95"
/>
</g>
<path fill="#bebebe" d="
  M 0.00 0.00
  L 184.00 0.00
  L 184.00 184.00
  L 0.00 184.00
  L 0.00 0.00
  Z
  M 117.04 121.70
  C 111.49 129.72 99.74 131.25 92.03 126.19
  Q 85.59 121.96 85.43 115.50
  Q 85.24 107.80 85.34 100.16
  A 0.36 0.36 0.0 0 0 84.98 99.80
  L 57.50 99.70
  A 0.78 0.78 0.0 0 0 56.72 100.48
  C 56.65 106.42 56.18 113.56 57.62 118.77
  C 60.75 130.04 70.11 135.09 81.32 136.12
  Q 84.43 136.40 81.49 135.33
  C 67.83 130.32 63.31 121.96 64.46 107.67
  A 0.78 0.77 2.0 0 1 65.24 106.95
  L 77.22 106.89
  A 0.52 0.52 0.0 0 1 77.74 107.41
  C 77.76 111.30 77.37 115.54 78.24 119.13
  C 82.61 137.16 103.19 140.57 117.62 131.78
  Q 126.92 125.14 126.90 114.11
  Q 126.87 94.35 127.08 74.60
  C 127.18 65.96 126.92 56.36 126.99 47.26
  A 0.75 0.74 90.0 0 0 126.25 46.51
  L 73.14 46.45
  Q 72.48 46.45 72.48 47.11
  L 72.56 73.78
  A 1.22 1.21 -0.0 0 0 73.78 74.99
  L 98.03 74.99
  A 0.69 0.69 0.0 0 1 98.72 75.68
  Q 98.76 92.97 98.73 110.41
  C 98.73 114.29 97.74 117.19 95.29 119.92
  Q 94.38 120.94 95.74 120.78
  C 100.74 120.21 105.97 116.84 105.96 111.25
  Q 105.94 89.55 106.05 68.39
  Q 106.05 67.36 105.03 67.37
  L 81.54 67.60
  Q 80.22 67.61 80.22 66.29
  L 80.23 54.88
  A 0.64 0.64 0.0 0 1 80.87 54.24
  L 118.98 54.26
  A 0.56 0.55 0.5 0 1 119.54 54.82
  Q 119.25 78.59 119.50 102.50
  C 119.57 109.24 120.39 115.33 117.04 121.70
  Z
  M 154.40 152.95
  Q 153.93 153.55 153.50 154.17
  C 152.03 156.27 149.71 156.88 147.25 156.20
  Q 141.10 154.52 141.59 147.99
  Q 141.78 145.48 139.60 144.05
  Q 139.17 143.77 138.83 144.15
  L 136.23 147.04
  A 2.39 2.38 51.4 0 1 132.37 146.60
  C 130.00 142.32 128.06 135.41 121.40 140.01
  A 1.67 1.63 25.9 0 1 120.53 140.30
  Q 118.45 140.40 116.87 141.64
  Q 115.55 142.67 115.07 143.02
  Q 114.03 143.76 113.20 144.80
  A 1.12 1.07 -27.2 0 0 112.95 145.52
  Q 112.99 147.53 111.44 148.59
  A 1.15 1.12 38.4 0 1 110.39 148.70
  Q 106.42 147.09 102.53 149.05
  Q 101.24 149.69 99.88 150.12
  C 97.74 150.80 96.34 152.07 94.40 153.06
  Q 93.93 153.29 93.44 153.15
  Q 92.26 152.80 91.64 153.84
  A 0.91 0.89 6.6 0 1 91.11 154.25
  Q 88.40 154.97 87.70 157.64
  Q 87.56 158.17 87.12 158.48
  Q 86.34 159.02 86.39 160.02
  A 0.87 0.85 -18.2 0 1 86.00 160.77
  Q 85.32 161.21 85.37 162.01
  Q 85.40 162.56 85.00 162.92
  Q 83.45 164.33 82.66 166.25
  Q 82.46 166.73 81.95 166.76
  Q 79.70 166.92 77.92 168.22
  Q 77.52 168.51 77.05 168.64
  Q 74.92 169.23 75.54 171.01
  Q 75.68 171.44 75.27 171.61
  Q 74.77 171.82 74.94 172.47
  Q 75.52 174.76 74.40 176.80
  Q 74.17 177.23 73.68 177.28
  Q 73.19 177.32 72.80 177.68
  Q 72.42 178.03 72.17 177.59
  Q 71.75 176.87 71.05 176.37
  Q 70.69 176.12 70.65 175.69
  C 70.41 173.08 69.89 169.80 67.33 168.89
  Q 66.83 168.71 66.40 169.01
  Q 63.26 171.13 62.68 174.96
  Q 62.61 175.40 62.29 175.71
  Q 61.10 176.85 60.95 178.45
  A 1.54 1.54 0.0 0 1 58.55 179.57
  C 55.75 177.65 55.87 173.83 53.40 171.23
  Q 53.04 170.85 52.51 170.85
  C 49.71 170.90 47.19 172.36 44.79 172.12
  C 39.92 171.63 37.47 167.54 34.50 163.23
  C 31.45 158.79 27.89 156.90 22.54 156.48
  C 20.35 156.30 18.60 155.62 16.57 155.00
  Q 15.85 154.78 14.34 153.80
  C 11.01 151.64 8.40 154.45 5.60 155.90
  C 2.99 157.24 0.79 159.66 0.62 162.50
  Q 0.06 171.77 0.46 181.45
  A 1.99 1.99 0.0 0 0 2.54 183.36
  C 4.49 183.27 6.66 183.60 8.50 183.60
  Q 33.93 183.72 59.34 183.00
  Q 61.14 182.95 64.65 183.19
  Q 68.41 183.45 70.00 182.74
  C 76.33 179.91 82.13 181.17 88.75 182.11
  C 97.89 183.40 107.11 183.81 116.34 183.87
  C 122.97 183.90 133.96 182.68 143.00 183.48
  C 145.66 183.72 148.24 183.08 151.00 183.12
  Q 166.13 183.34 181.88 183.89
  A 1.86 1.86 0.0 0 0 183.81 181.98
  C 183.67 175.89 183.11 169.74 183.25 163.68
  C 183.49 152.69 184.21 140.68 181.98 129.88
  A 0.58 0.58 0.0 0 0 181.36 129.43
  L 181.09 129.46
  Q 180.83 129.49 180.86 129.75
  C 181.17 132.80 181.43 135.42 180.47 138.47
  Q 178.36 145.20 176.43 151.96
  C 175.28 155.99 172.62 157.72 168.42 156.18
  Q 166.51 155.48 164.47 154.75
  A 2.48 2.47 -77.4 0 1 162.85 152.19
  Q 163.16 148.97 163.15 145.14
  Q 163.15 142.90 162.17 140.53
  Q 161.23 138.25 160.49 136.04
  A 1.80 1.80 0.0 0 0 157.22 135.70
  C 155.69 138.33 156.16 141.74 155.75 144.00
  C 155.27 146.63 155.98 150.98 154.40 152.95
  Z"
/>
<path fill="#fe9e31" d="
  M 117.62 131.78
  Q 116.55 130.51 116.29 129.48
  Q 116.26 129.37 116.38 129.37
  L 116.69 129.37
  Q 116.79 129.37 116.84 129.29
  Q 117.58 128.02 116.42 127.09
  A 0.73 0.72 18.9 0 1 116.15 126.55
  Q 116.08 124.22 117.04 121.70
  C 120.39 115.33 119.57 109.24 119.50 102.50
  Q 119.25 78.59 119.54 54.82
  A 0.56 0.55 0.5 0 0 118.98 54.26
  L 80.87 54.24
  A 0.64 0.64 0.0 0 0 80.23 54.88
  L 80.22 66.29
  Q 80.22 67.61 81.54 67.60
  L 105.03 67.37
  Q 106.05 67.36 106.05 68.39
  Q 105.94 89.55 105.96 111.25
  C 105.97 116.84 100.74 120.21 95.74 120.78
  Q 94.38 120.94 95.29 119.92
  C 97.74 117.19 98.73 114.29 98.73 110.41
  Q 98.76 92.97 98.72 75.68
  A 0.69 0.69 0.0 0 0 98.03 74.99
  L 73.78 74.99
  A 1.22 1.21 -0.0 0 1 72.56 73.78
  L 72.48 47.11
  Q 72.48 46.45 73.14 46.45
  L 126.25 46.51
  A 0.75 0.74 -90.0 0 1 126.99 47.26
  C 126.92 56.36 127.18 65.96 127.08 74.60
  Q 126.87 94.35 126.90 114.11
  Q 126.92 125.14 117.62 131.78
  Z"
/>
<path fill="#fca715" d="
  M 117.04 121.70
  Q 116.08 124.22 116.15 126.55
  A 0.73 0.72 18.9 0 0 116.42 127.09
  Q 117.58 128.02 116.84 129.29
  Q 116.79 129.37 116.69 129.37
  L 116.38 129.37
  Q 116.26 129.37 116.29 129.48
  Q 116.55 130.51 117.62 131.78
  C 103.19 140.57 82.61 137.16 78.24 119.13
  C 77.37 115.54 77.76 111.30 77.74 107.41
  A 0.52 0.52 0.0 0 0 77.22 106.89
  L 65.24 106.95
  A 0.78 0.77 2.0 0 0 64.46 107.67
  C 63.31 121.96 67.83 130.32 81.49 135.33
  Q 84.43 136.40 81.32 136.12
  C 70.11 135.09 60.75 130.04 57.62 118.77
  C 56.18 113.56 56.65 106.42 56.72 100.48
  A 0.78 0.78 0.0 0 1 57.50 99.70
  L 84.98 99.80
  A 0.36 0.36 0.0 0 1 85.34 100.16
  Q 85.24 107.80 85.43 115.50
  Q 85.59 121.96 92.03 126.19
  C 99.74 131.25 111.49 129.72 117.04 121.70
  Z"
/>
<path fill="#ababaa" d="
  M 154.40 152.95
  C 155.98 150.98 155.27 146.63 155.75 144.00
  C 156.16 141.74 155.69 138.33 157.22 135.70
  A 1.80 1.80 0.0 0 1 160.49 136.04
  Q 161.23 138.25 162.17 140.53
  Q 163.15 142.90 163.15 145.14
  Q 163.16 148.97 162.85 152.19
  A 2.48 2.47 -77.4 0 0 164.47 154.75
  Q 166.51 155.48 168.42 156.18
  C 172.62 157.72 175.28 155.99 176.43 151.96
  Q 178.36 145.20 180.47 138.47
  C 181.43 135.42 181.17 132.80 180.86 129.75
  Q 180.83 129.49 181.09 129.46
  L 181.36 129.43
  A 0.58 0.58 0.0 0 1 181.98 129.88
  C 184.21 140.68 183.49 152.69 183.25 163.68
  C 183.11 169.74 183.67 175.89 183.81 181.98
  A 1.86 1.86 0.0 0 1 181.88 183.89
  Q 166.13 183.34 151.00 183.12
  C 148.24 183.08 145.66 183.72 143.00 183.48
  C 133.96 182.68 122.97 183.90 116.34 183.87
  C 107.11 183.81 97.89 183.40 88.75 182.11
  C 82.13 181.17 76.33 179.91 70.00 182.74
  Q 68.41 183.45 64.65 183.19
  Q 61.14 182.95 59.34 183.00
  Q 33.93 183.72 8.50 183.60
  C 6.66 183.60 4.49 183.27 2.54 183.36
  A 1.99 1.99 0.0 0 1 0.46 181.45
  Q 0.06 171.77 0.62 162.50
  C 0.79 159.66 2.99 157.24 5.60 155.90
  C 8.40 154.45 11.01 151.64 14.34 153.80
  Q 15.85 154.78 16.57 155.00
  C 18.60 155.62 20.35 156.30 22.54 156.48
  C 27.89 156.90 31.45 158.79 34.50 163.23
  C 37.47 167.54 39.92 171.63 44.79 172.12
  C 47.19 172.36 49.71 170.90 52.51 170.85
  Q 53.04 170.85 53.40 171.23
  C 55.87 173.83 55.75 177.65 58.55 179.57
  A 1.54 1.54 0.0 0 0 60.95 178.45
  Q 61.10 176.85 62.29 175.71
  Q 62.61 175.40 62.68 174.96
  Q 63.26 171.13 66.40 169.01
  Q 66.83 168.71 67.33 168.89
  C 69.89 169.80 70.41 173.08 70.65 175.69
  Q 70.69 176.12 71.05 176.37
  Q 71.75 176.87 72.17 177.59
  Q 72.42 178.03 72.80 177.68
  Q 73.19 177.32 73.68 177.28
  Q 74.17 177.23 74.40 176.80
  Q 75.52 174.76 74.94 172.47
  Q 74.77 171.82 75.27 171.61
  Q 75.68 171.44 75.54 171.01
  Q 74.92 169.23 77.05 168.64
  Q 77.52 168.51 77.92 168.22
  Q 79.70 166.92 81.95 166.76
  Q 82.46 166.73 82.66 166.25
  Q 83.45 164.33 85.00 162.92
  Q 85.40 162.56 85.37 162.01
  Q 85.32 161.21 86.00 160.77
  A 0.87 0.85 -18.2 0 0 86.39 160.02
  Q 86.34 159.02 87.12 158.48
  Q 87.56 158.17 87.70 157.64
  Q 88.40 154.97 91.11 154.25
  A 0.91 0.89 6.6 0 0 91.64 153.84
  Q 92.26 152.80 93.44 153.15
  Q 93.93 153.29 94.40 153.06
  C 96.34 152.07 97.74 150.80 99.88 150.12
  Q 101.24 149.69 102.53 149.05
  Q 106.42 147.09 110.39 148.70
  A 1.15 1.12 38.4 0 0 111.44 148.59
  Q 112.99 147.53 112.95 145.52
  A 1.12 1.07 -27.2 0 1 113.20 144.80
  Q 114.03 143.76 115.07 143.02
  Q 115.55 142.67 116.87 141.64
  Q 118.45 140.40 120.53 140.30
  A 1.67 1.63 25.9 0 0 121.40 140.01
  C 128.06 135.41 130.00 142.32 132.37 146.60
  A 2.39 2.38 51.4 0 0 136.23 147.04
  L 138.83 144.15
  Q 139.17 143.77 139.60 144.05
  Q 141.78 145.48 141.59 147.99
  Q 141.10 154.52 147.25 156.20
  C 149.71 156.88 152.03 156.27 153.50 154.17
  Q 153.93 153.55 154.40 152.95
  Z"
/>
</svg>
