<?xml version="1.0" encoding="UTF-8"?>
<svg id="Ebene_2" data-name="Ebene 2" xmlns="http://www.w3.org/2000/svg" viewBox="0 0 39.75 44">
  <defs>
    <style>
      .cls-1 {
        fill: #4b7cbc;
      }

      .cls-2 {
        fill: #f3db6c;
      }

      .cls-3 {
        fill: #4d3f33;
      }

      .cls-4 {
        fill: #fff;
      }

      .cls-5 {
        fill: #6f488c;
      }

      .cls-6 {
        fill: #dfdfdf;
      }

      .cls-7 {
        fill: #7a573b;
      }

      .cls-8 {
        fill: #99cd61;
      }

      .cls-9 {
        fill: #df6277;
      }

      .cls-10 {
        fill: #d6d2d2;
      }

      .cls-11 {
        fill: #7ab392;
      }

      .cls-12 {
        fill: #fb9168;
      }
    </style>
  </defs>
  <g id="svg66">
    <g id="g24">
      <path id="path6" class="cls-9" d="M19.88,0l-9.53,16.5,9.53,5.5,9.53-5.5.41-11.72C25.47,2.27,20.98,0,19.88,0h0Z"/>
      <path id="path8" class="cls-12" d="M29.82,4.79l-9.94,17.21,9.53,5.5,9.53-16.5c-.55-.95-4.76-3.7-9.11-6.21h0Z"/>
      <path id="path10" class="cls-2" d="M38.93,11l-19.05,11,9.53,5.5,10.35-5.5c0-5.02-.27-10.05-.82-11h0Z"/>
      <path id="path12" class="cls-11" d="M19.88,22v11h19.05c.55-.95.82-5.98.82-11h-19.88Z"/>
      <path id="path14" class="cls-1" d="M19.88,22v11l9.94,6.21c4.35-2.51,8.56-5.26,9.11-6.21l-19.05-11Z"/>
      <path id="path16" class="cls-5" d="M19.88,22l-9.53,5.5,9.53,16.5c1.1,0,5.59-2.27,9.94-4.79l-9.94-17.21Z"/>
      <path id="path18" class="cls-3" d="M10.35,16.5L.82,33c1.1,1.91,16.85,11,19.05,11v-22l-9.53-5.5Z"/>
      <path id="path20" class="cls-7" d="M.82,11c-1.1,1.91-1.1,20.09,0,22l19.05-11v-11H.82Z"/>
      <path id="path22" class="cls-8" d="M19.88,0C17.68,0,1.92,9.1.82,11l19.05,11V0Z"/>
    </g>
    <g id="g32">
      <g id="g28">
        <path id="path26" class="cls-4" d="M19.88,11c-1.1,0-8.98,4.55-9.53,5.5l9.53,16.5,9.53-16.5c-.55-.95-8.43-5.5-9.53-5.5Z"/>
      </g>
      <path id="path30" class="cls-6" d="M10.35,16.5l9.53,16.5c1.1,0,8.98-4.55,9.53-5.5.55-.95.55-10.05,0-11l-9.53,5.5-9.53-5.5Z"/>
    </g>
    <path id="path34" class="cls-10" d="M10.35,16.5c-.55.95-.55,10.05,0,11,.55.95,8.43,5.5,9.53,5.5v-11l-9.53-5.5Z"/>
  </g>
</svg>